<?xml version="1.0" encoding="UTF-8" standalone="no"?>
<!-- Created with Inkscape (http://www.inkscape.org/) -->

<svg
   width="81.527283mm"
   height="82.945068mm"
   viewBox="0 0 81.527283 82.945068"
   version="1.1"
   id="svg5"
   xml:space="preserve"
   xmlns="http://www.w3.org/2000/svg"
   xmlns:svg="http://www.w3.org/2000/svg"><defs
     id="defs2" /><g
     id="layer1"
     transform="translate(-900.6,-1278.0706)"><g
       id="g1272"
       transform="translate(886.2363,1072.9668)"><g
         id="g1287"
         transform="translate(-53.677977,29.903506)"><g
           id="g1410"><path
             style="fill:#782121;stroke-width:0.0843394"
             id="path1218"
             d="m 127.54008,226.34796 a 19.409271,19.409271 0 0 1 -9.70463,16.80892 19.409271,19.409271 0 0 1 -19.409273,0 19.409271,19.409271 0 0 1 -9.704635,-16.80892" /><path
             id="path1226"
             style="fill:#000000;stroke-width:0.0843394"
             d="m 88.721586,226.34792 a 19.409271,19.409271 0 0 0 9.704628,16.80896 19.409271,19.409271 0 0 0 19.409266,0 19.409271,19.409271 0 0 0 9.70462,-16.80896 z m 2.598665,1.29944 h 33.621079 a 16.81054,16.81054 0 0 1 -8.40529,14.55831 16.81054,16.81054 0 0 1 -16.81049,0 16.81054,16.81054 0 0 1 -8.405299,-14.55831 z" /><path
             id="path1220"
             style="fill:#ff8080;stroke-width:0.0843394"
             d="m 115.36914,238.27037 c -10.29106,1.67471 -9.4808,5.92979 -8.30661,10.87415 2.49205,7.36726 7.28285,8.58147 8.23441,8.76241 6.82356,1.23409 11.71273,-2.43268 12.0959,-8.37994 -0.19594,-1.71968 -0.66219,-4.2438 -6.70976,-4.43003 -1.27986,-2.20537 3.35431,-9.93198 -5.31394,-6.82659 z" /></g></g><g
         id="g1317"
         transform="translate(-101.81071,92.222729)"><g
           id="g1301"><circle
             style="fill:#000000;stroke:none;stroke-width:1.29838;stroke-linejoin:bevel"
             id="circle1289"
             cx="180.55731"
             cy="-50.79105"
             r="18.09058"
             transform="rotate(60)" /><circle
             style="fill:#000000;stroke:none;stroke-width:1.06202;stroke-linejoin:bevel"
             id="circle1291"
             cx="180.55731"
             cy="-50.79105"
             r="14.797288"
             transform="rotate(60)" /><circle
             style="fill:#ffffff;stroke:none;stroke-width:0.425655;stroke-linejoin:bevel"
             id="circle1293"
             cx="180.55731"
             cy="-52.057697"
             r="5.9307318"
             transform="rotate(60)" /><circle
             style="fill:#ffffff;stroke:none;stroke-width:0.17111;stroke-linejoin:bevel"
             id="circle1295"
             cx="170.67744"
             cy="-53.577671"
             r="2.3841095"
             transform="rotate(60)" /><circle
             style="fill:#ffffff;stroke:none;stroke-width:0.0983829;stroke-linejoin:bevel"
             id="circle1297"
             cx="172.16106"
             cy="-48.040783"
             r="1.3707888"
             transform="rotate(60)" /><circle
             style="fill:#ffffff;stroke:none;stroke-width:0.0438376;stroke-linejoin:bevel"
             id="circle1299"
             cx="176.38826"
             cy="-44.722645"
             r="0.6107983"
             transform="rotate(60)" /></g><g
           id="g1315"
           transform="translate(45.346099)"><circle
             style="fill:#000000;stroke:none;stroke-width:1.29838;stroke-linejoin:bevel"
             id="circle1303"
             cx="180.55731"
             cy="-50.79105"
             r="18.09058"
             transform="rotate(60)" /><circle
             style="fill:#000000;stroke:none;stroke-width:1.06202;stroke-linejoin:bevel"
             id="circle1305"
             cx="180.55731"
             cy="-50.79105"
             r="14.797288"
             transform="rotate(60)" /><circle
             style="fill:#ffffff;stroke:none;stroke-width:0.425655;stroke-linejoin:bevel"
             id="circle1307"
             cx="180.55731"
             cy="-52.057697"
             r="5.9307318"
             transform="rotate(60)" /><circle
             style="fill:#ffffff;stroke:none;stroke-width:0.17111;stroke-linejoin:bevel"
             id="circle1309"
             cx="170.67744"
             cy="-53.577671"
             r="2.3841095"
             transform="rotate(60)" /><circle
             style="fill:#ffffff;stroke:none;stroke-width:0.0983829;stroke-linejoin:bevel"
             id="circle1311"
             cx="172.16106"
             cy="-48.040783"
             r="1.3707888"
             transform="rotate(60)" /><circle
             style="fill:#ffffff;stroke:none;stroke-width:0.0438376;stroke-linejoin:bevel"
             id="circle1313"
             cx="176.38826"
             cy="-44.722645"
             r="0.6107983"
             transform="rotate(60)" /></g></g></g></g></svg>
